<svg xmlns="http://www.w3.org/2000/svg" width="59" height="24" viewBox="0 0 59 24">
    <path fill="#000" fill-rule="nonzero" d="M8.676 24c-2.002 0-3.698-.355-5.089-1.064A11.808 11.808 0 0 1 0 20.144l2.97-2.859c.8.931 1.696 1.64 2.686 2.128.99.487 2.086.731 3.287.731 1.358 0 2.38-.294 3.07-.88.69-.588 1.035-1.38 1.035-2.378 0-.775-.222-1.407-.667-1.894-.445-.488-1.28-.842-2.503-1.064l-2.203-.332C3.025 12.864.701 10.615.701 6.848c0-1.042.194-1.984.584-2.826a6.012 6.012 0 0 1 1.685-2.16C3.704 1.262 4.589.802 5.623.481 6.658.161 7.831 0 9.143 0c1.758 0 3.293.288 4.606.864a9.037 9.037 0 0 1 3.37 2.56l-3.003 2.825a6.91 6.91 0 0 0-2.102-1.728c-.824-.443-1.858-.665-3.104-.665-1.268 0-2.22.238-2.853.715-.634.476-.951 1.146-.951 2.01 0 .887.256 1.54.767 1.962.512.421 1.335.731 2.47.93l2.169.4c2.358.42 4.099 1.169 5.222 2.243 1.124 1.075 1.686 2.577 1.686 4.504 0 1.109-.195 2.111-.584 3.009a6.505 6.505 0 0 1-1.702 2.327c-.746.653-1.658 1.158-2.737 1.512-1.079.355-2.319.532-3.72.532zm13.149-.399V.4h10.478c1.068 0 2.03.172 2.887.515a6.11 6.11 0 0 1 2.186 1.463c.6.631 1.056 1.39 1.368 2.277.311.886.467 1.861.467 2.925 0 1.086-.156 2.066-.467 2.942a6.296 6.296 0 0 1-1.368 2.26 6.11 6.11 0 0 1-2.186 1.463c-.857.343-1.819.515-2.887.515H26.23v8.842h-4.405zM26.23 10.97h5.673c.845 0 1.513-.228 2.002-.682.49-.454.734-1.102.734-1.945V6.814c0-.842-.245-1.484-.734-1.928-.49-.443-1.157-.664-2.002-.664H26.23v6.748zM50.49 24c-1.357 0-2.564-.172-3.62-.515-1.057-.344-1.947-.815-2.67-1.413a5.999 5.999 0 0 1-1.652-2.127c-.378-.82-.567-1.718-.567-2.693 0-1.507.417-2.731 1.251-3.673.834-.942 1.952-1.601 3.354-1.978v-.266c-1.157-.42-2.097-1.075-2.82-1.961-.723-.886-1.084-2.006-1.084-3.357 0-.887.172-1.696.517-2.427a5.29 5.29 0 0 1 1.518-1.895c.668-.532 1.485-.947 2.453-1.246.968-.3 2.075-.449 3.32-.449 1.246 0 2.353.15 3.32.449.969.299 1.786.714 2.454 1.246a5.29 5.29 0 0 1 1.518 1.895c.345.731.517 1.54.517 2.427 0 1.351-.361 2.47-1.084 3.357-.723.886-1.663 1.54-2.82 1.961v.266c1.401.377 2.52 1.036 3.354 1.978.834.942 1.251 2.166 1.251 3.673 0 .975-.19 1.873-.567 2.693a5.999 5.999 0 0 1-1.652 2.127c-.723.598-1.613 1.07-2.67 1.413-1.057.343-2.264.515-3.62.515zm0-3.424c1.268 0 2.242-.288 2.92-.864.679-.576 1.018-1.385 1.018-2.427v-.698c0-1.041-.34-1.85-1.018-2.426-.678-.577-1.652-.865-2.92-.865s-2.241.288-2.92.865c-.678.576-1.017 1.385-1.017 2.426v.698c0 1.042.339 1.85 1.017 2.427.679.576 1.652.864 2.92.864zm0-10.537c1.18 0 2.08-.266 2.703-.798.623-.532.935-1.285.935-2.26v-.532c0-.953-.312-1.696-.935-2.227-.622-.532-1.523-.798-2.703-.798-1.179 0-2.08.266-2.703.798-.623.531-.934 1.274-.934 2.227v.532c0 .975.311 1.728.934 2.26.623.532 1.524.798 2.703.798z"/>
</svg>
